<?xml version="1.0" encoding="iso-8859-1"?>
<!-- Generator: Adobe Illustrator 18.0.0, SVG Export Plug-In . SVG Version: 6.00 Build 0)  -->
<!DOCTYPE svg PUBLIC "-//W3C//DTD SVG 1.1//EN" "http://www.w3.org/Graphics/SVG/1.1/DTD/svg11.dtd">
<svg version="1.1" id="Capa_1" xmlns="http://www.w3.org/2000/svg" xmlns:xlink="http://www.w3.org/1999/xlink" x="0px" y="0px"
	 viewBox="0 0 297 297" style="enable-background:new 0 0 297 297;" xml:space="preserve" fill="#FFFFFF">
<g>
	<path d="M283.715,218.928l-84.241-84.24c3.593-18.175,2.266-37.227-5.007-51.345c-8.901-17.275-23.128-23.41-24.72-24.053
		c-4.784-1.929-10.258-0.814-13.906,2.833l-93.041,93.039c-3.532,3.532-4.699,8.79-2.994,13.484
		c0.602,1.658,6.386,16.293,23.884,25.308c8.919,4.595,20.006,6.861,32.064,6.861c0.003,0,0.002,0,0.005,0
		c6.506,0,13.069-0.531,19.464-1.826l83.959,84.04c8.912,8.912,20.612,13.41,32.303,13.41c11.649,0,23.287-4.406,32.143-13.262
		c8.592-8.591,13.341-19.981,13.373-32.09C297.032,238.942,292.314,227.528,283.715,218.928z M115.754,175.094
		c-7.977,0-14.991-1.278-20.284-4.006c-3.055-1.574-5.387-3.381-7.129-5.174l78.085-78.042c1.758,1.799,3.606,4.185,5.175,7.231
		c8.897,17.269,3.017,49.656-11.651,64.324c-9.315,9.315-27.487,15.667-44.191,15.667
		C115.757,175.094,115.756,175.094,115.754,175.094z M265.439,265.01c-7.716,7.715-20.307,7.676-28.07-0.087l-75.356-75.355
		c6.165-3.343,11.656-7.312,16.124-11.779c4.58-4.58,8.538-10.11,11.837-16.224l75.552,75.551c3.722,3.723,5.766,8.664,5.751,13.914
		C271.264,256.294,269.191,261.258,265.439,265.01z"/>
	<path d="M214.348,195.733c-5.024-5.022-13.166-5.022-18.188,0c-5.023,5.023-5.023,13.166,0,18.188l23.085,23.084
		c2.512,2.511,5.803,3.767,9.094,3.767c3.292,0,6.583-1.256,9.094-3.767c5.023-5.023,5.023-13.166,0-18.188L214.348,195.733z"/>
	<path d="M85.632,103.393c2.512,2.512,5.803,3.767,9.094,3.767c3.291,0,6.583-1.256,9.094-3.767c5.023-5.023,5.023-13.165,0-18.188
		L54.852,36.236c-5.023-5.023-13.165-5.023-18.188,0s-5.023,13.165,0,18.188L85.632,103.393z"/>
	<path d="M77.166,127.607c0-7.103-5.758-12.861-12.861-12.861H12.861C5.758,114.746,0,120.504,0,127.607
		c0,7.103,5.758,12.861,12.861,12.861h51.444C71.408,140.468,77.166,134.71,77.166,127.607z"/>
	<path d="M127.67,75.748c7.103,0,12.861-5.758,12.861-12.861V13.422c0-7.103-5.758-12.861-12.861-12.861
		s-12.861,5.758-12.861,12.861v49.465C114.809,69.99,120.567,75.748,127.67,75.748z"/>
</g>
<g>
</g>
<g>
</g>
<g>
</g>
<g>
</g>
<g>
</g>
<g>
</g>
<g>
</g>
<g>
</g>
<g>
</g>
<g>
</g>
<g>
</g>
<g>
</g>
<g>
</g>
<g>
</g>
<g>
</g>
</svg>
