<?xml version="1.0" encoding="iso-8859-1"?>
<!-- Generator: Adobe Illustrator 19.0.0, SVG Export Plug-In . SVG Version: 6.00 Build 0)  -->
<svg version="1.1" id="Capa_1" xmlns="http://www.w3.org/2000/svg" xmlns:xlink="http://www.w3.org/1999/xlink" x="0px" y="0px"
	 viewBox="0 0 511.999 511.999" style="enable-background:new 0 0 511.999 511.999;" xml:space="preserve" fill="#FFFFFF">
<g>
	<g>
		<path d="M490.057,58.513H21.943C9.825,58.513,0,68.339,0,80.456v351.086c0,12.118,9.825,21.943,21.943,21.943h87.771h292.571
			h87.771c12.118,0,21.943-9.825,21.943-21.943V80.456C512,68.339,502.175,58.513,490.057,58.513z M135.617,409.599l7.314-43.886
			h226.137l7.314,43.886H135.617z M468.115,409.599L468.115,409.599h-47.241l-11.573-69.436
			c-1.763-10.581-10.917-18.335-21.644-18.335H124.343c-10.727,0-19.882,7.755-21.644,18.335l-11.573,69.436h-47.24V102.4h424.229
			V409.599z"/>
	</g>
</g>
<g>
	<g>
		<path d="M358.4,146.286c-36.299,0-65.829,29.531-65.829,65.829s29.529,65.829,65.829,65.829c36.299,0,65.829-29.531,65.829-65.829
			C424.229,175.816,394.699,146.286,358.4,146.286z M358.4,234.057c-12.099,0-21.943-9.844-21.943-21.943
			s9.844-21.943,21.943-21.943s21.943,9.844,21.943,21.943C380.343,224.214,370.499,234.057,358.4,234.057z"/>
	</g>
</g>
<g>
	<g>
		<path d="M153.6,146.286c-36.299,0-65.829,29.531-65.829,65.829s29.531,65.829,65.829,65.829c36.299,0,65.829-29.531,65.829-65.829
			C219.429,175.816,189.899,146.286,153.6,146.286z M153.6,234.057c-12.099,0-21.943-9.844-21.943-21.943
			s9.844-21.943,21.943-21.943s21.943,9.844,21.943,21.943C175.543,224.214,165.699,234.057,153.6,234.057z"/>
	</g>
</g>
<g>
</g>
<g>
</g>
<g>
</g>
<g>
</g>
<g>
</g>
<g>
</g>
<g>
</g>
<g>
</g>
<g>
</g>
<g>
</g>
<g>
</g>
<g>
</g>
<g>
</g>
<g>
</g>
<g>
</g>
</svg>
